<mxfile host="app.diagrams.net" agent="Mozilla/5.0 (Windows NT 10.0; Win64; x64) AppleWebKit/537.36 (KHTML, like Gecko) Chrome/130.0.0.0 Safari/537.36 Edg/130.0.0.0" version="24.8.0">
  <diagram name="Page-1" id="kCL5Etr2wLG0znLuOGDF">
    <mxGraphModel dx="1691" dy="-105" grid="1" gridSize="10" guides="1" tooltips="1" connect="1" arrows="1" fold="1" page="0" pageScale="1" pageWidth="827" pageHeight="1169" math="0" shadow="0">
      <root>
        <mxCell id="0" />
        <mxCell id="1" parent="0" />
        <mxCell id="-C-B5iJ783mXRR9op9Xc-57" value="«component»&lt;br&gt;&lt;b&gt;Data Storage System&lt;/b&gt;" style="html=1;dropTarget=0;whiteSpace=wrap;" vertex="1" parent="1">
          <mxGeometry x="301.50000000000006" y="1189.5" width="180" height="90" as="geometry" />
        </mxCell>
        <mxCell id="-C-B5iJ783mXRR9op9Xc-58" value="" style="shape=module;jettyWidth=8;jettyHeight=4;" vertex="1" parent="-C-B5iJ783mXRR9op9Xc-57">
          <mxGeometry x="1" width="20" height="20" relative="1" as="geometry">
            <mxPoint x="-27" y="7" as="offset" />
          </mxGeometry>
        </mxCell>
        <mxCell id="-C-B5iJ783mXRR9op9Xc-59" value="«component»&lt;br&gt;&lt;b&gt;Ingestion System&lt;/b&gt;" style="html=1;dropTarget=0;whiteSpace=wrap;" vertex="1" parent="1">
          <mxGeometry x="301.5" y="1030" width="180" height="90" as="geometry" />
        </mxCell>
        <mxCell id="-C-B5iJ783mXRR9op9Xc-60" value="" style="shape=module;jettyWidth=8;jettyHeight=4;" vertex="1" parent="-C-B5iJ783mXRR9op9Xc-59">
          <mxGeometry x="1" width="20" height="20" relative="1" as="geometry">
            <mxPoint x="-27" y="7" as="offset" />
          </mxGeometry>
        </mxCell>
        <mxCell id="-C-B5iJ783mXRR9op9Xc-61" value="«component»&lt;br&gt;&lt;b&gt;Caching System&lt;/b&gt;" style="html=1;dropTarget=0;whiteSpace=wrap;" vertex="1" parent="1">
          <mxGeometry x="301.5" y="1350" width="180" height="90" as="geometry" />
        </mxCell>
        <mxCell id="-C-B5iJ783mXRR9op9Xc-62" value="" style="shape=module;jettyWidth=8;jettyHeight=4;" vertex="1" parent="-C-B5iJ783mXRR9op9Xc-61">
          <mxGeometry x="1" width="20" height="20" relative="1" as="geometry">
            <mxPoint x="-27" y="7" as="offset" />
          </mxGeometry>
        </mxCell>
        <mxCell id="-C-B5iJ783mXRR9op9Xc-63" value="«component»&lt;br&gt;&lt;b&gt;Compute Cluster&lt;/b&gt;" style="html=1;dropTarget=0;whiteSpace=wrap;" vertex="1" parent="1">
          <mxGeometry x="621.5" y="1270.5" width="180" height="90" as="geometry" />
        </mxCell>
        <mxCell id="-C-B5iJ783mXRR9op9Xc-64" value="" style="shape=module;jettyWidth=8;jettyHeight=4;" vertex="1" parent="-C-B5iJ783mXRR9op9Xc-63">
          <mxGeometry x="1" width="20" height="20" relative="1" as="geometry">
            <mxPoint x="-27" y="7" as="offset" />
          </mxGeometry>
        </mxCell>
        <mxCell id="-C-B5iJ783mXRR9op9Xc-65" value="«component»&lt;br&gt;&lt;b&gt;Row Store&lt;/b&gt;" style="html=1;dropTarget=0;whiteSpace=wrap;" vertex="1" parent="1">
          <mxGeometry x="-58.5" y="1155" width="180" height="90" as="geometry" />
        </mxCell>
        <mxCell id="-C-B5iJ783mXRR9op9Xc-66" value="" style="shape=module;jettyWidth=8;jettyHeight=4;" vertex="1" parent="-C-B5iJ783mXRR9op9Xc-65">
          <mxGeometry x="1" width="20" height="20" relative="1" as="geometry">
            <mxPoint x="-27" y="7" as="offset" />
          </mxGeometry>
        </mxCell>
        <mxCell id="-C-B5iJ783mXRR9op9Xc-67" value="«component»&lt;br&gt;&lt;b&gt;Query Execution Engine&lt;/b&gt;" style="html=1;dropTarget=0;whiteSpace=wrap;" vertex="1" parent="1">
          <mxGeometry x="-58.49999999999994" y="955" width="180" height="90" as="geometry" />
        </mxCell>
        <mxCell id="-C-B5iJ783mXRR9op9Xc-68" value="" style="shape=module;jettyWidth=8;jettyHeight=4;" vertex="1" parent="-C-B5iJ783mXRR9op9Xc-67">
          <mxGeometry x="1" width="20" height="20" relative="1" as="geometry">
            <mxPoint x="-27" y="7" as="offset" />
          </mxGeometry>
        </mxCell>
        <mxCell id="-C-B5iJ783mXRR9op9Xc-69" value="«component»&lt;br&gt;&lt;b&gt;Indexing System&lt;/b&gt;" style="html=1;dropTarget=0;whiteSpace=wrap;" vertex="1" parent="1">
          <mxGeometry x="-58.49999999999994" y="1283.5" width="180" height="90" as="geometry" />
        </mxCell>
        <mxCell id="-C-B5iJ783mXRR9op9Xc-70" value="" style="shape=module;jettyWidth=8;jettyHeight=4;" vertex="1" parent="-C-B5iJ783mXRR9op9Xc-69">
          <mxGeometry x="1" width="20" height="20" relative="1" as="geometry">
            <mxPoint x="-27" y="7" as="offset" />
          </mxGeometry>
        </mxCell>
        <mxCell id="-C-B5iJ783mXRR9op9Xc-71" value="«component»&lt;br&gt;&lt;b&gt;Control Plane&lt;/b&gt;" style="html=1;dropTarget=0;whiteSpace=wrap;" vertex="1" parent="1">
          <mxGeometry x="621.5" y="1676" width="180" height="90" as="geometry" />
        </mxCell>
        <mxCell id="-C-B5iJ783mXRR9op9Xc-72" value="" style="shape=module;jettyWidth=8;jettyHeight=4;" vertex="1" parent="-C-B5iJ783mXRR9op9Xc-71">
          <mxGeometry x="1" width="20" height="20" relative="1" as="geometry">
            <mxPoint x="-27" y="7" as="offset" />
          </mxGeometry>
        </mxCell>
        <mxCell id="-C-B5iJ783mXRR9op9Xc-73" value="«component»&lt;br&gt;&lt;b&gt;Cross-Cluster Querying System&lt;/b&gt;" style="html=1;dropTarget=0;whiteSpace=wrap;" vertex="1" parent="1">
          <mxGeometry x="301.5" y="1509" width="180" height="90" as="geometry" />
        </mxCell>
        <mxCell id="-C-B5iJ783mXRR9op9Xc-74" value="" style="shape=module;jettyWidth=8;jettyHeight=4;" vertex="1" parent="-C-B5iJ783mXRR9op9Xc-73">
          <mxGeometry x="1" width="20" height="20" relative="1" as="geometry">
            <mxPoint x="-27" y="7" as="offset" />
          </mxGeometry>
        </mxCell>
        <mxCell id="-C-B5iJ783mXRR9op9Xc-87" value="" style="ellipse;whiteSpace=wrap;html=1;align=center;aspect=fixed;fillColor=none;strokeColor=none;resizable=0;perimeter=centerPerimeter;rotatable=0;allowArrows=0;points=[];outlineConnect=1;" vertex="1" parent="1">
          <mxGeometry x="694.5" y="1273.5" width="10" height="10" as="geometry" />
        </mxCell>
        <mxCell id="-C-B5iJ783mXRR9op9Xc-93" style="edgeStyle=orthogonalEdgeStyle;rounded=0;orthogonalLoop=1;jettySize=auto;html=1;entryX=1;entryY=0.75;entryDx=0;entryDy=0;endArrow=none;endFill=0;exitX=1;exitY=0.5;exitDx=0;exitDy=0;exitPerimeter=0;" edge="1" parent="1" source="-C-B5iJ783mXRR9op9Xc-110" target="-C-B5iJ783mXRR9op9Xc-59">
          <mxGeometry relative="1" as="geometry">
            <mxPoint x="799.5" y="1009.5" as="sourcePoint" />
          </mxGeometry>
        </mxCell>
        <mxCell id="-C-B5iJ783mXRR9op9Xc-95" style="edgeStyle=orthogonalEdgeStyle;rounded=0;orthogonalLoop=1;jettySize=auto;html=1;endArrow=none;endFill=0;exitX=1;exitY=0.5;exitDx=0;exitDy=0;exitPerimeter=0;entryX=1;entryY=0.75;entryDx=0;entryDy=0;" edge="1" parent="1" source="-C-B5iJ783mXRR9op9Xc-111" target="-C-B5iJ783mXRR9op9Xc-61">
          <mxGeometry relative="1" as="geometry">
            <mxPoint x="527.8000000000002" y="1356" as="sourcePoint" />
          </mxGeometry>
        </mxCell>
        <mxCell id="-C-B5iJ783mXRR9op9Xc-186" style="edgeStyle=orthogonalEdgeStyle;rounded=0;orthogonalLoop=1;jettySize=auto;html=1;endArrow=none;endFill=0;" edge="1" parent="1" source="-C-B5iJ783mXRR9op9Xc-106" target="-C-B5iJ783mXRR9op9Xc-71">
          <mxGeometry relative="1" as="geometry" />
        </mxCell>
        <mxCell id="-C-B5iJ783mXRR9op9Xc-106" value="" style="ellipse;whiteSpace=wrap;html=1;aspect=fixed;" vertex="1" parent="1">
          <mxGeometry x="576.5" y="1714" width="14" height="14" as="geometry" />
        </mxCell>
        <mxCell id="-C-B5iJ783mXRR9op9Xc-108" style="edgeStyle=orthogonalEdgeStyle;rounded=0;orthogonalLoop=1;jettySize=auto;html=1;entryX=1;entryY=0.5;entryDx=0;entryDy=0;endArrow=none;endFill=0;" edge="1" parent="1" source="-C-B5iJ783mXRR9op9Xc-107" target="-C-B5iJ783mXRR9op9Xc-63">
          <mxGeometry relative="1" as="geometry" />
        </mxCell>
        <mxCell id="-C-B5iJ783mXRR9op9Xc-107" value="" style="shape=requiredInterface;html=1;verticalLabelPosition=bottom;sketch=0;rotation=-180;" vertex="1" parent="1">
          <mxGeometry x="831.8" y="1305.5" width="10" height="20" as="geometry" />
        </mxCell>
        <mxCell id="-C-B5iJ783mXRR9op9Xc-124" style="edgeStyle=orthogonalEdgeStyle;rounded=0;orthogonalLoop=1;jettySize=auto;html=1;entryX=0;entryY=0.5;entryDx=0;entryDy=0;dashed=1;dashPattern=12 12;endArrow=open;endFill=0;" edge="1" parent="1" source="-C-B5iJ783mXRR9op9Xc-110" target="-C-B5iJ783mXRR9op9Xc-116">
          <mxGeometry relative="1" as="geometry" />
        </mxCell>
        <mxCell id="-C-B5iJ783mXRR9op9Xc-110" value="" style="shape=requiredInterface;html=1;verticalLabelPosition=bottom;sketch=0;rotation=-180;" vertex="1" parent="1">
          <mxGeometry x="511.5" y="1087" width="10" height="20" as="geometry" />
        </mxCell>
        <mxCell id="-C-B5iJ783mXRR9op9Xc-111" value="" style="shape=requiredInterface;html=1;verticalLabelPosition=bottom;sketch=0;rotation=-180;" vertex="1" parent="1">
          <mxGeometry x="511.5" y="1406" width="10" height="21" as="geometry" />
        </mxCell>
        <mxCell id="-C-B5iJ783mXRR9op9Xc-114" style="edgeStyle=orthogonalEdgeStyle;rounded=0;orthogonalLoop=1;jettySize=auto;html=1;entryX=0;entryY=0.5;entryDx=0;entryDy=0;endArrow=none;endFill=0;exitX=1;exitY=0.5;exitDx=0;exitDy=0;" edge="1" parent="1" source="-C-B5iJ783mXRR9op9Xc-116" target="-C-B5iJ783mXRR9op9Xc-63">
          <mxGeometry relative="1" as="geometry">
            <mxPoint x="564.5" y="1312.5" as="sourcePoint" />
          </mxGeometry>
        </mxCell>
        <mxCell id="-C-B5iJ783mXRR9op9Xc-116" value="" style="ellipse;whiteSpace=wrap;html=1;aspect=fixed;" vertex="1" parent="1">
          <mxGeometry x="576.5" y="1308.5" width="14" height="14" as="geometry" />
        </mxCell>
        <mxCell id="-C-B5iJ783mXRR9op9Xc-128" style="edgeStyle=orthogonalEdgeStyle;rounded=0;orthogonalLoop=1;jettySize=auto;html=1;entryX=1;entryY=0.75;entryDx=0;entryDy=0;endArrow=none;endFill=0;" edge="1" parent="1" source="-C-B5iJ783mXRR9op9Xc-117" target="-C-B5iJ783mXRR9op9Xc-57">
          <mxGeometry relative="1" as="geometry" />
        </mxCell>
        <mxCell id="-C-B5iJ783mXRR9op9Xc-117" value="" style="shape=requiredInterface;html=1;verticalLabelPosition=bottom;sketch=0;rotation=-180;" vertex="1" parent="1">
          <mxGeometry x="511.5" y="1246.5" width="10" height="21" as="geometry" />
        </mxCell>
        <mxCell id="-C-B5iJ783mXRR9op9Xc-121" style="edgeStyle=orthogonalEdgeStyle;rounded=0;orthogonalLoop=1;jettySize=auto;html=1;entryX=1;entryY=0.75;entryDx=0;entryDy=0;endArrow=none;endFill=0;" edge="1" parent="1" source="-C-B5iJ783mXRR9op9Xc-120" target="-C-B5iJ783mXRR9op9Xc-73">
          <mxGeometry relative="1" as="geometry" />
        </mxCell>
        <mxCell id="-C-B5iJ783mXRR9op9Xc-120" value="" style="shape=requiredInterface;html=1;verticalLabelPosition=bottom;sketch=0;rotation=-180;" vertex="1" parent="1">
          <mxGeometry x="511.5" y="1566" width="10" height="21" as="geometry" />
        </mxCell>
        <mxCell id="-C-B5iJ783mXRR9op9Xc-127" style="edgeStyle=orthogonalEdgeStyle;rounded=0;orthogonalLoop=1;jettySize=auto;html=1;entryX=1;entryY=0.25;entryDx=0;entryDy=0;endArrow=none;endFill=0;" edge="1" parent="1" source="-C-B5iJ783mXRR9op9Xc-126" target="-C-B5iJ783mXRR9op9Xc-59">
          <mxGeometry relative="1" as="geometry" />
        </mxCell>
        <mxCell id="-C-B5iJ783mXRR9op9Xc-126" value="" style="shape=requiredInterface;html=1;verticalLabelPosition=bottom;sketch=0;rotation=-180;" vertex="1" parent="1">
          <mxGeometry x="511.5" y="1043" width="10" height="19" as="geometry" />
        </mxCell>
        <mxCell id="-C-B5iJ783mXRR9op9Xc-130" style="edgeStyle=orthogonalEdgeStyle;rounded=0;orthogonalLoop=1;jettySize=auto;html=1;entryX=1;entryY=0.25;entryDx=0;entryDy=0;endArrow=none;endFill=0;" edge="1" parent="1" source="-C-B5iJ783mXRR9op9Xc-129" target="-C-B5iJ783mXRR9op9Xc-57">
          <mxGeometry relative="1" as="geometry" />
        </mxCell>
        <mxCell id="-C-B5iJ783mXRR9op9Xc-129" value="" style="shape=requiredInterface;html=1;verticalLabelPosition=bottom;sketch=0;rotation=-180;" vertex="1" parent="1">
          <mxGeometry x="511.5" y="1202" width="10" height="20" as="geometry" />
        </mxCell>
        <mxCell id="-C-B5iJ783mXRR9op9Xc-132" style="edgeStyle=orthogonalEdgeStyle;rounded=0;orthogonalLoop=1;jettySize=auto;html=1;entryX=1;entryY=0.25;entryDx=0;entryDy=0;endArrow=none;endFill=0;" edge="1" parent="1" source="-C-B5iJ783mXRR9op9Xc-131" target="-C-B5iJ783mXRR9op9Xc-61">
          <mxGeometry relative="1" as="geometry" />
        </mxCell>
        <mxCell id="-C-B5iJ783mXRR9op9Xc-131" value="" style="shape=requiredInterface;html=1;verticalLabelPosition=bottom;sketch=0;rotation=-180;" vertex="1" parent="1">
          <mxGeometry x="511.5" y="1363" width="10" height="19" as="geometry" />
        </mxCell>
        <mxCell id="-C-B5iJ783mXRR9op9Xc-134" style="edgeStyle=orthogonalEdgeStyle;rounded=0;orthogonalLoop=1;jettySize=auto;html=1;entryX=1;entryY=0.25;entryDx=0;entryDy=0;endArrow=none;endFill=0;" edge="1" parent="1" source="-C-B5iJ783mXRR9op9Xc-133" target="-C-B5iJ783mXRR9op9Xc-73">
          <mxGeometry relative="1" as="geometry" />
        </mxCell>
        <mxCell id="-C-B5iJ783mXRR9op9Xc-133" value="" style="shape=requiredInterface;html=1;verticalLabelPosition=bottom;sketch=0;rotation=-180;aspect=fixed;" vertex="1" parent="1">
          <mxGeometry x="511.5" y="1521" width="10" height="21" as="geometry" />
        </mxCell>
        <mxCell id="-C-B5iJ783mXRR9op9Xc-135" style="edgeStyle=orthogonalEdgeStyle;rounded=0;orthogonalLoop=1;jettySize=auto;html=1;entryX=0;entryY=0.5;entryDx=0;entryDy=0;dashed=1;dashPattern=12 12;endArrow=open;endFill=0;exitX=0;exitY=0.5;exitDx=0;exitDy=0;exitPerimeter=0;" edge="1" parent="1" source="-C-B5iJ783mXRR9op9Xc-117" target="-C-B5iJ783mXRR9op9Xc-116">
          <mxGeometry relative="1" as="geometry">
            <mxPoint x="531.5" y="1107" as="sourcePoint" />
            <mxPoint x="586.5" y="1326" as="targetPoint" />
          </mxGeometry>
        </mxCell>
        <mxCell id="-C-B5iJ783mXRR9op9Xc-136" style="edgeStyle=orthogonalEdgeStyle;rounded=0;orthogonalLoop=1;jettySize=auto;html=1;entryX=0;entryY=0.5;entryDx=0;entryDy=0;dashed=1;dashPattern=12 12;endArrow=open;endFill=0;exitX=0;exitY=0.5;exitDx=0;exitDy=0;exitPerimeter=0;" edge="1" parent="1" source="-C-B5iJ783mXRR9op9Xc-111" target="-C-B5iJ783mXRR9op9Xc-116">
          <mxGeometry relative="1" as="geometry">
            <mxPoint x="556.5" y="1345" as="sourcePoint" />
            <mxPoint x="596.5" y="1336" as="targetPoint" />
          </mxGeometry>
        </mxCell>
        <mxCell id="-C-B5iJ783mXRR9op9Xc-137" style="edgeStyle=orthogonalEdgeStyle;rounded=0;orthogonalLoop=1;jettySize=auto;html=1;entryX=0;entryY=0.5;entryDx=0;entryDy=0;dashed=1;dashPattern=12 12;endArrow=open;endFill=0;exitX=0;exitY=0.5;exitDx=0;exitDy=0;exitPerimeter=0;" edge="1" parent="1" source="-C-B5iJ783mXRR9op9Xc-120" target="-C-B5iJ783mXRR9op9Xc-116">
          <mxGeometry relative="1" as="geometry">
            <mxPoint x="551.5" y="1127" as="sourcePoint" />
            <mxPoint x="606.5" y="1346" as="targetPoint" />
          </mxGeometry>
        </mxCell>
        <mxCell id="-C-B5iJ783mXRR9op9Xc-143" style="edgeStyle=orthogonalEdgeStyle;rounded=0;orthogonalLoop=1;jettySize=auto;html=1;entryX=0;entryY=0.5;entryDx=0;entryDy=0;endArrow=none;endFill=0;" edge="1" parent="1" source="-C-B5iJ783mXRR9op9Xc-144" target="-C-B5iJ783mXRR9op9Xc-59">
          <mxGeometry relative="1" as="geometry">
            <mxPoint x="271.5" y="1221" as="targetPoint" />
          </mxGeometry>
        </mxCell>
        <mxCell id="-C-B5iJ783mXRR9op9Xc-144" value="" style="ellipse;whiteSpace=wrap;html=1;aspect=fixed;" vertex="1" parent="1">
          <mxGeometry x="257.5" y="1068" width="14" height="14" as="geometry" />
        </mxCell>
        <mxCell id="-C-B5iJ783mXRR9op9Xc-146" style="edgeStyle=orthogonalEdgeStyle;rounded=0;orthogonalLoop=1;jettySize=auto;html=1;entryX=0;entryY=0.75;entryDx=0;entryDy=0;endArrow=none;endFill=0;" edge="1" parent="1" source="-C-B5iJ783mXRR9op9Xc-147" target="-C-B5iJ783mXRR9op9Xc-57">
          <mxGeometry relative="1" as="geometry">
            <mxPoint x="311.5" y="1085" as="targetPoint" />
          </mxGeometry>
        </mxCell>
        <mxCell id="-C-B5iJ783mXRR9op9Xc-147" value="" style="ellipse;whiteSpace=wrap;html=1;aspect=fixed;" vertex="1" parent="1">
          <mxGeometry x="257.5" y="1250" width="14" height="14" as="geometry" />
        </mxCell>
        <mxCell id="-C-B5iJ783mXRR9op9Xc-149" style="edgeStyle=orthogonalEdgeStyle;rounded=0;orthogonalLoop=1;jettySize=auto;html=1;entryX=0;entryY=0.75;entryDx=0;entryDy=0;endArrow=none;endFill=0;" edge="1" parent="1" source="-C-B5iJ783mXRR9op9Xc-150" target="-C-B5iJ783mXRR9op9Xc-61">
          <mxGeometry relative="1" as="geometry">
            <mxPoint x="311.5" y="1267" as="targetPoint" />
          </mxGeometry>
        </mxCell>
        <mxCell id="-C-B5iJ783mXRR9op9Xc-150" value="" style="ellipse;whiteSpace=wrap;html=1;aspect=fixed;" vertex="1" parent="1">
          <mxGeometry x="257.5" y="1410.5" width="14" height="14" as="geometry" />
        </mxCell>
        <mxCell id="-C-B5iJ783mXRR9op9Xc-152" style="edgeStyle=orthogonalEdgeStyle;rounded=0;orthogonalLoop=1;jettySize=auto;html=1;entryX=0;entryY=0.5;entryDx=0;entryDy=0;endArrow=none;endFill=0;" edge="1" parent="1" source="-C-B5iJ783mXRR9op9Xc-153" target="-C-B5iJ783mXRR9op9Xc-73">
          <mxGeometry relative="1" as="geometry">
            <mxPoint x="286.5" y="1576.5" as="targetPoint" />
          </mxGeometry>
        </mxCell>
        <mxCell id="-C-B5iJ783mXRR9op9Xc-153" value="" style="ellipse;whiteSpace=wrap;html=1;aspect=fixed;" vertex="1" parent="1">
          <mxGeometry x="257.5" y="1547" width="14" height="14" as="geometry" />
        </mxCell>
        <mxCell id="-C-B5iJ783mXRR9op9Xc-155" style="edgeStyle=orthogonalEdgeStyle;rounded=0;orthogonalLoop=1;jettySize=auto;html=1;entryX=0;entryY=0.25;entryDx=0;entryDy=0;endArrow=none;endFill=0;" edge="1" parent="1" source="-C-B5iJ783mXRR9op9Xc-154" target="-C-B5iJ783mXRR9op9Xc-57">
          <mxGeometry relative="1" as="geometry" />
        </mxCell>
        <mxCell id="-C-B5iJ783mXRR9op9Xc-154" value="" style="shape=requiredInterface;html=1;verticalLabelPosition=bottom;sketch=0;rotation=0;" vertex="1" parent="1">
          <mxGeometry x="261.5" y="1202" width="10" height="20" as="geometry" />
        </mxCell>
        <mxCell id="-C-B5iJ783mXRR9op9Xc-158" style="edgeStyle=orthogonalEdgeStyle;rounded=0;orthogonalLoop=1;jettySize=auto;html=1;entryX=0;entryY=0.25;entryDx=0;entryDy=0;endArrow=none;endFill=0;" edge="1" parent="1" source="-C-B5iJ783mXRR9op9Xc-159" target="-C-B5iJ783mXRR9op9Xc-61">
          <mxGeometry relative="1" as="geometry">
            <mxPoint x="297.5" y="1372" as="targetPoint" />
          </mxGeometry>
        </mxCell>
        <mxCell id="-C-B5iJ783mXRR9op9Xc-159" value="" style="shape=requiredInterface;html=1;verticalLabelPosition=bottom;sketch=0;rotation=0;" vertex="1" parent="1">
          <mxGeometry x="261.5" y="1362.5" width="10" height="20" as="geometry" />
        </mxCell>
        <mxCell id="-C-B5iJ783mXRR9op9Xc-160" style="edgeStyle=orthogonalEdgeStyle;rounded=0;orthogonalLoop=1;jettySize=auto;html=1;dashed=1;dashPattern=12 12;endArrow=none;endFill=0;exitX=0;exitY=0.5;exitDx=0;exitDy=0;entryX=0;entryY=0.5;entryDx=0;entryDy=0;entryPerimeter=0;startArrow=open;startFill=0;" edge="1" parent="1" source="-C-B5iJ783mXRR9op9Xc-144" target="-C-B5iJ783mXRR9op9Xc-154">
          <mxGeometry relative="1" as="geometry">
            <mxPoint x="531.5" y="1063" as="sourcePoint" />
            <mxPoint x="501.5" y="1315" as="targetPoint" />
            <Array as="points">
              <mxPoint x="231.5" y="1075" />
              <mxPoint x="231.5" y="1212" />
            </Array>
          </mxGeometry>
        </mxCell>
        <mxCell id="-C-B5iJ783mXRR9op9Xc-162" style="edgeStyle=orthogonalEdgeStyle;rounded=0;orthogonalLoop=1;jettySize=auto;html=1;dashed=1;dashPattern=12 12;endArrow=none;endFill=0;exitX=0;exitY=0.5;exitDx=0;exitDy=0;entryX=0;entryY=0.5;entryDx=0;entryDy=0;entryPerimeter=0;startArrow=open;startFill=0;" edge="1" parent="1" source="-C-B5iJ783mXRR9op9Xc-144" target="-C-B5iJ783mXRR9op9Xc-159">
          <mxGeometry relative="1" as="geometry">
            <mxPoint x="267.5" y="1085" as="sourcePoint" />
            <mxPoint x="271.5" y="1222" as="targetPoint" />
            <Array as="points">
              <mxPoint x="211.5" y="1075" />
              <mxPoint x="211.5" y="1373" />
            </Array>
          </mxGeometry>
        </mxCell>
        <mxCell id="-C-B5iJ783mXRR9op9Xc-163" value="" style="shape=module;jettyWidth=8;jettyHeight=4;" vertex="1" parent="1">
          <mxGeometry x="464.5" y="1047" width="20" height="20" as="geometry" />
        </mxCell>
        <mxCell id="-C-B5iJ783mXRR9op9Xc-164" style="edgeStyle=orthogonalEdgeStyle;rounded=0;orthogonalLoop=1;jettySize=auto;html=1;entryX=1;entryY=0.5;entryDx=0;entryDy=0;endArrow=none;endFill=0;" edge="1" parent="1" source="-C-B5iJ783mXRR9op9Xc-165" target="-C-B5iJ783mXRR9op9Xc-65">
          <mxGeometry relative="1" as="geometry">
            <mxPoint x="531.5" y="1006" as="targetPoint" />
          </mxGeometry>
        </mxCell>
        <mxCell id="-C-B5iJ783mXRR9op9Xc-165" value="" style="shape=requiredInterface;html=1;verticalLabelPosition=bottom;sketch=0;rotation=-180;" vertex="1" parent="1">
          <mxGeometry x="151.5" y="1190.5" width="10" height="19" as="geometry" />
        </mxCell>
        <mxCell id="-C-B5iJ783mXRR9op9Xc-169" style="edgeStyle=orthogonalEdgeStyle;rounded=0;orthogonalLoop=1;jettySize=auto;html=1;dashed=1;dashPattern=12 12;endArrow=none;endFill=0;exitX=0;exitY=0.5;exitDx=0;exitDy=0;startArrow=open;startFill=0;entryX=0;entryY=0.5;entryDx=0;entryDy=0;entryPerimeter=0;jumpStyle=arc;" edge="1" parent="1" source="-C-B5iJ783mXRR9op9Xc-147" target="-C-B5iJ783mXRR9op9Xc-165">
          <mxGeometry relative="1" as="geometry">
            <mxPoint x="267.5" y="1085" as="sourcePoint" />
            <mxPoint x="171.5" y="1065" as="targetPoint" />
            <Array as="points">
              <mxPoint x="191.5" y="1257" />
              <mxPoint x="191.5" y="1200" />
            </Array>
          </mxGeometry>
        </mxCell>
        <mxCell id="-C-B5iJ783mXRR9op9Xc-170" style="edgeStyle=orthogonalEdgeStyle;rounded=0;orthogonalLoop=1;jettySize=auto;html=1;entryX=1;entryY=0.5;entryDx=0;entryDy=0;endArrow=none;endFill=0;" edge="1" parent="1" source="-C-B5iJ783mXRR9op9Xc-171" target="-C-B5iJ783mXRR9op9Xc-69">
          <mxGeometry relative="1" as="geometry">
            <mxPoint x="131.5" y="1305.5" as="targetPoint" />
          </mxGeometry>
        </mxCell>
        <mxCell id="-C-B5iJ783mXRR9op9Xc-171" value="" style="shape=requiredInterface;html=1;verticalLabelPosition=bottom;sketch=0;rotation=-180;" vertex="1" parent="1">
          <mxGeometry x="151.5" y="1319" width="10" height="19" as="geometry" />
        </mxCell>
        <mxCell id="-C-B5iJ783mXRR9op9Xc-172" style="edgeStyle=orthogonalEdgeStyle;rounded=0;orthogonalLoop=1;jettySize=auto;html=1;dashed=1;dashPattern=12 12;endArrow=none;endFill=0;exitX=0;exitY=0.5;exitDx=0;exitDy=0;startArrow=open;startFill=0;entryX=0;entryY=0.5;entryDx=0;entryDy=0;entryPerimeter=0;jumpStyle=arc;" edge="1" parent="1" source="-C-B5iJ783mXRR9op9Xc-147" target="-C-B5iJ783mXRR9op9Xc-171">
          <mxGeometry relative="1" as="geometry">
            <mxPoint x="267.5" y="1267" as="sourcePoint" />
            <mxPoint x="171.5" y="1210" as="targetPoint" />
            <Array as="points">
              <mxPoint x="191.5" y="1257" />
              <mxPoint x="191.5" y="1329" />
              <mxPoint x="161.5" y="1329" />
            </Array>
          </mxGeometry>
        </mxCell>
        <mxCell id="-C-B5iJ783mXRR9op9Xc-173" value="" style="shape=module;jettyWidth=8;jettyHeight=4;" vertex="1" parent="1">
          <mxGeometry x="104.5" y="1172" width="20" height="20" as="geometry" />
        </mxCell>
        <mxCell id="-C-B5iJ783mXRR9op9Xc-176" style="edgeStyle=orthogonalEdgeStyle;rounded=0;orthogonalLoop=1;jettySize=auto;html=1;entryX=0;entryY=0.5;entryDx=0;entryDy=0;endArrow=none;endFill=0;" edge="1" parent="1" source="-C-B5iJ783mXRR9op9Xc-177" target="-C-B5iJ783mXRR9op9Xc-65">
          <mxGeometry relative="1" as="geometry">
            <mxPoint x="311.5" y="1428" as="targetPoint" />
          </mxGeometry>
        </mxCell>
        <mxCell id="-C-B5iJ783mXRR9op9Xc-177" value="" style="ellipse;whiteSpace=wrap;html=1;aspect=fixed;" vertex="1" parent="1">
          <mxGeometry x="-106.5" y="1193" width="14" height="14" as="geometry" />
        </mxCell>
        <mxCell id="-C-B5iJ783mXRR9op9Xc-180" style="edgeStyle=orthogonalEdgeStyle;rounded=0;orthogonalLoop=1;jettySize=auto;html=1;entryX=0;entryY=0.5;entryDx=0;entryDy=0;endArrow=none;endFill=0;" edge="1" parent="1" source="-C-B5iJ783mXRR9op9Xc-179" target="-C-B5iJ783mXRR9op9Xc-69">
          <mxGeometry relative="1" as="geometry" />
        </mxCell>
        <mxCell id="-C-B5iJ783mXRR9op9Xc-179" value="" style="ellipse;whiteSpace=wrap;html=1;aspect=fixed;" vertex="1" parent="1">
          <mxGeometry x="-106.5" y="1321.5" width="14" height="14" as="geometry" />
        </mxCell>
        <mxCell id="-C-B5iJ783mXRR9op9Xc-187" style="edgeStyle=orthogonalEdgeStyle;rounded=0;orthogonalLoop=1;jettySize=auto;html=1;endArrow=none;endFill=0;entryX=0;entryY=0.5;entryDx=0;entryDy=0;" edge="1" parent="1" source="-C-B5iJ783mXRR9op9Xc-188" target="-C-B5iJ783mXRR9op9Xc-67">
          <mxGeometry relative="1" as="geometry">
            <mxPoint x="-70" y="960" as="targetPoint" />
          </mxGeometry>
        </mxCell>
        <mxCell id="-C-B5iJ783mXRR9op9Xc-190" style="edgeStyle=orthogonalEdgeStyle;rounded=0;orthogonalLoop=1;jettySize=auto;html=1;entryX=0;entryY=0.5;entryDx=0;entryDy=0;endArrow=open;endFill=0;dashed=1;dashPattern=8 8;" edge="1" parent="1" source="-C-B5iJ783mXRR9op9Xc-188" target="-C-B5iJ783mXRR9op9Xc-177">
          <mxGeometry relative="1" as="geometry">
            <Array as="points">
              <mxPoint x="-130" y="1000" />
              <mxPoint x="-130" y="1200" />
            </Array>
          </mxGeometry>
        </mxCell>
        <mxCell id="-C-B5iJ783mXRR9op9Xc-191" style="edgeStyle=orthogonalEdgeStyle;rounded=0;orthogonalLoop=1;jettySize=auto;html=1;entryX=0;entryY=0.5;entryDx=0;entryDy=0;endArrow=open;endFill=0;dashed=1;dashPattern=8 8;" edge="1" parent="1" source="-C-B5iJ783mXRR9op9Xc-188" target="-C-B5iJ783mXRR9op9Xc-179">
          <mxGeometry relative="1" as="geometry">
            <Array as="points">
              <mxPoint x="-150" y="1000" />
              <mxPoint x="-150" y="1329" />
            </Array>
          </mxGeometry>
        </mxCell>
        <mxCell id="-C-B5iJ783mXRR9op9Xc-192" style="edgeStyle=orthogonalEdgeStyle;rounded=0;orthogonalLoop=1;jettySize=auto;html=1;entryX=0;entryY=0.5;entryDx=0;entryDy=0;dashed=1;dashPattern=8 8;endArrow=open;endFill=0;" edge="1" parent="1" source="-C-B5iJ783mXRR9op9Xc-188" target="-C-B5iJ783mXRR9op9Xc-150">
          <mxGeometry relative="1" as="geometry">
            <Array as="points">
              <mxPoint x="-170" y="1000" />
              <mxPoint x="-170" y="1418" />
            </Array>
          </mxGeometry>
        </mxCell>
        <mxCell id="-C-B5iJ783mXRR9op9Xc-193" style="edgeStyle=orthogonalEdgeStyle;rounded=0;orthogonalLoop=1;jettySize=auto;html=1;entryX=0;entryY=0.5;entryDx=0;entryDy=0;endArrow=open;endFill=0;dashed=1;dashPattern=8 8;" edge="1" parent="1" source="-C-B5iJ783mXRR9op9Xc-188" target="-C-B5iJ783mXRR9op9Xc-153">
          <mxGeometry relative="1" as="geometry">
            <Array as="points">
              <mxPoint x="-190" y="1000" />
              <mxPoint x="-190" y="1554" />
            </Array>
          </mxGeometry>
        </mxCell>
        <mxCell id="-C-B5iJ783mXRR9op9Xc-188" value="" style="shape=requiredInterface;html=1;verticalLabelPosition=bottom;sketch=0;rotation=0;" vertex="1" parent="1">
          <mxGeometry x="-102.5" y="990" width="10" height="20" as="geometry" />
        </mxCell>
      </root>
    </mxGraphModel>
  </diagram>
</mxfile>
